<?xml version="1.0" encoding="UTF-8" standalone="no"?>
<!DOCTYPE svg PUBLIC "-//W3C//DTD SVG 1.1//EN"
 "http://www.w3.org/Graphics/SVG/1.1/DTD/svg11.dtd">
<!-- Generated by graphviz version 2.44.1 (20200629.0846)
 -->
<!-- Title: dependencies Pages: 1 -->
<svg width="897pt" height="284pt"
 viewBox="0.00 0.00 897.00 284.00" xmlns="http://www.w3.org/2000/svg" xmlns:xlink="http://www.w3.org/1999/xlink">
<g id="graph0" class="graph" transform="scale(1 1) rotate(0) translate(4 280)">
<title>dependencies</title>
<polygon fill="white" stroke="transparent" points="-4,4 -4,-280 893,-280 893,4 -4,4"/>
<text text-anchor="start" x="423.51" y="-42.4" font-family="sans-serif" font-weight="bold" font-size="14.00">Legend</text>
<polygon fill="#ffffb3" stroke="transparent" points="210.5,-10 210.5,-30 230.5,-30 230.5,-10 210.5,-10"/>
<text text-anchor="start" x="234.13" y="-15.4" font-family="sans-serif" font-size="14.00"> &#160;Declarations</text>
<polygon fill="#8dd3c7" stroke="transparent" points="323.5,-10 323.5,-30 343.5,-30 343.5,-10 323.5,-10"/>
<text text-anchor="start" x="347.23" y="-15.4" font-family="sans-serif" font-size="14.00"> &#160;Module</text>
<polygon fill="#80b1d3" stroke="transparent" points="409.5,-10 409.5,-30 429.5,-30 429.5,-10 409.5,-10"/>
<text text-anchor="start" x="433.28" y="-15.4" font-family="sans-serif" font-size="14.00"> &#160;Bootstrap</text>
<polygon fill="#fdb462" stroke="transparent" points="506.5,-10 506.5,-30 526.5,-30 526.5,-10 506.5,-10"/>
<text text-anchor="start" x="530.17" y="-15.4" font-family="sans-serif" font-size="14.00"> &#160;Providers</text>
<polygon fill="#fb8072" stroke="transparent" points="602.5,-10 602.5,-30 622.5,-30 622.5,-10 602.5,-10"/>
<text text-anchor="start" x="626.23" y="-15.4" font-family="sans-serif" font-size="14.00"> &#160;Exports</text>
<g id="clust1" class="cluster">
<title>cluster_ToolsModule</title>
<polygon fill="none" stroke="black" stroke-dasharray="1,5" points="8,-70 8,-268 881,-268 881,-70 8,-70"/>
</g>
<g id="clust2" class="cluster">
<title>cluster_ToolsModule_declarations</title>
<polygon fill="none" stroke="black" points="146,-78 146,-130 873,-130 873,-78 146,-78"/>
</g>
<g id="clust8" class="cluster">
<title>cluster_ToolsModule_exports</title>
<polygon fill="none" stroke="black" points="230,-208 230,-260 562,-260 562,-208 230,-208"/>
</g>
<g id="clust7" class="cluster">
<title>cluster_ToolsModule_imports</title>
<polygon fill="none" stroke="black" points="16,-78 16,-130 138,-130 138,-78 16,-78"/>
</g>
<!-- ChangePersonDataComponent -->
<g id="node1" class="node">
<title>ChangePersonDataComponent</title>
<polygon fill="#ffffb3" stroke="black" points="865.13,-122 676.87,-122 676.87,-86 865.13,-86 865.13,-122"/>
<text text-anchor="middle" x="771" y="-99.8" font-family="Times,serif" font-size="14.00">ChangePersonDataComponent</text>
</g>
<!-- ToolsModule -->
<g id="node5" class="node">
<title>ToolsModule</title>
<polygon fill="#8dd3c7" stroke="black" points="430.94,-187 427.94,-191 406.94,-191 403.94,-187 339.06,-187 339.06,-151 430.94,-151 430.94,-187"/>
<text text-anchor="middle" x="385" y="-164.8" font-family="Times,serif" font-size="14.00">ToolsModule</text>
</g>
<!-- ChangePersonDataComponent&#45;&gt;ToolsModule -->
<g id="edge1" class="edge">
<title>ChangePersonDataComponent&#45;&gt;ToolsModule</title>
<path fill="none" stroke="black" d="M771,-122.28C771,-143.32 771,-175 771,-175 771,-175 440.8,-175 440.8,-175"/>
<polygon fill="black" stroke="black" points="440.8,-171.5 430.8,-175 440.8,-178.5 440.8,-171.5"/>
</g>
<!-- ConfirmDialogComponent -->
<g id="node2" class="node">
<title>ConfirmDialogComponent</title>
<polygon fill="#ffffb3" stroke="black" points="658.37,-122 491.63,-122 491.63,-86 658.37,-86 658.37,-122"/>
<text text-anchor="middle" x="575" y="-99.8" font-family="Times,serif" font-size="14.00">ConfirmDialogComponent</text>
</g>
<!-- ConfirmDialogComponent&#45;&gt;ToolsModule -->
<g id="edge2" class="edge">
<title>ConfirmDialogComponent&#45;&gt;ToolsModule</title>
<path fill="none" stroke="black" d="M522.88,-122.02C522.88,-139.37 522.88,-163 522.88,-163 522.88,-163 440.91,-163 440.91,-163"/>
<polygon fill="black" stroke="black" points="440.91,-159.5 430.91,-163 440.91,-166.5 440.91,-159.5"/>
</g>
<!-- PasswordChangeComponent -->
<g id="node3" class="node">
<title>PasswordChangeComponent</title>
<polygon fill="#ffffb3" stroke="black" points="473.75,-122 296.25,-122 296.25,-86 473.75,-86 473.75,-122"/>
<text text-anchor="middle" x="385" y="-99.8" font-family="Times,serif" font-size="14.00">PasswordChangeComponent</text>
</g>
<!-- PasswordChangeComponent&#45;&gt;ToolsModule -->
<g id="edge3" class="edge">
<title>PasswordChangeComponent&#45;&gt;ToolsModule</title>
<path fill="none" stroke="black" d="M385,-122.11C385,-122.11 385,-140.99 385,-140.99"/>
<polygon fill="black" stroke="black" points="381.5,-140.99 385,-150.99 388.5,-140.99 381.5,-140.99"/>
</g>
<!-- TopBarComponent -->
<g id="node4" class="node">
<title>TopBarComponent</title>
<polygon fill="#ffffb3" stroke="black" points="278.1,-122 153.9,-122 153.9,-86 278.1,-86 278.1,-122"/>
<text text-anchor="middle" x="216" y="-99.8" font-family="Times,serif" font-size="14.00">TopBarComponent</text>
</g>
<!-- TopBarComponent&#45;&gt;ToolsModule -->
<g id="edge4" class="edge">
<title>TopBarComponent&#45;&gt;ToolsModule</title>
<path fill="none" stroke="black" d="M258.12,-122.02C258.12,-139.37 258.12,-163 258.12,-163 258.12,-163 329.2,-163 329.2,-163"/>
<polygon fill="black" stroke="black" points="329.2,-166.5 339.2,-163 329.2,-159.5 329.2,-166.5"/>
</g>
<!-- ConfirmDialogComponent  -->
<g id="node7" class="node">
<title>ConfirmDialogComponent </title>
<polygon fill="#fb8072" stroke="black" points="554.37,-252 383.63,-252 383.63,-216 554.37,-216 554.37,-252"/>
<text text-anchor="middle" x="469" y="-229.8" font-family="Times,serif" font-size="14.00">ConfirmDialogComponent </text>
</g>
<!-- ToolsModule&#45;&gt;ConfirmDialogComponent  -->
<g id="edge6" class="edge">
<title>ToolsModule&#45;&gt;ConfirmDialogComponent </title>
<path fill="none" stroke="black" stroke-dasharray="5,2" d="M407.27,-187.11C407.27,-187.11 407.27,-205.99 407.27,-205.99"/>
<polygon fill="black" stroke="black" points="403.77,-205.99 407.27,-215.99 410.77,-205.99 403.77,-205.99"/>
</g>
<!-- TopBarComponent  -->
<g id="node8" class="node">
<title>TopBarComponent </title>
<polygon fill="#fb8072" stroke="black" points="365.6,-252 238.4,-252 238.4,-216 365.6,-216 365.6,-252"/>
<text text-anchor="middle" x="302" y="-229.8" font-family="Times,serif" font-size="14.00">TopBarComponent </text>
</g>
<!-- ToolsModule&#45;&gt;TopBarComponent  -->
<g id="edge7" class="edge">
<title>ToolsModule&#45;&gt;TopBarComponent </title>
<path fill="none" stroke="black" stroke-dasharray="5,2" d="M352.54,-187.11C352.54,-187.11 352.54,-205.99 352.54,-205.99"/>
<polygon fill="black" stroke="black" points="349.04,-205.99 352.54,-215.99 356.04,-205.99 349.04,-205.99"/>
</g>
<!-- MaterialModule -->
<g id="node6" class="node">
<title>MaterialModule</title>
<polygon fill="#8dd3c7" stroke="black" points="130.47,-122 127.47,-126 106.47,-126 103.47,-122 23.53,-122 23.53,-86 130.47,-86 130.47,-122"/>
<text text-anchor="middle" x="77" y="-99.8" font-family="Times,serif" font-size="14.00">MaterialModule</text>
</g>
<!-- MaterialModule&#45;&gt;ToolsModule -->
<g id="edge5" class="edge">
<title>MaterialModule&#45;&gt;ToolsModule</title>
<path fill="none" stroke="black" d="M77,-122.28C77,-143.32 77,-175 77,-175 77,-175 329.22,-175 329.22,-175"/>
<polygon fill="black" stroke="black" points="329.22,-178.5 339.22,-175 329.22,-171.5 329.22,-178.5"/>
</g>
</g>
</svg>
