<?xml version="1.0" encoding="UTF-8" standalone="no"?>
<!DOCTYPE svg PUBLIC "-//W3C//DTD SVG 1.1//EN"
 "http://www.w3.org/Graphics/SVG/1.1/DTD/svg11.dtd">
<!-- Generated by graphviz version 2.44.1 (20200629.0846)
 -->
<!-- Title: dependencies Pages: 1 -->
<svg width="504pt" height="284pt"
 viewBox="0.00 0.00 504.00 284.00" xmlns="http://www.w3.org/2000/svg" xmlns:xlink="http://www.w3.org/1999/xlink">
<g id="graph0" class="graph" transform="scale(1 1) rotate(0) translate(4 280)">
<title>dependencies</title>
<polygon fill="white" stroke="transparent" points="-4,4 -4,-280 500,-280 500,4 -4,4"/>
<text text-anchor="start" x="227.01" y="-42.4" font-family="sans-serif" font-weight="bold" font-size="14.00">Legend</text>
<polygon fill="#ffffb3" stroke="transparent" points="14,-10 14,-30 34,-30 34,-10 14,-10"/>
<text text-anchor="start" x="37.63" y="-15.4" font-family="sans-serif" font-size="14.00"> &#160;Declarations</text>
<polygon fill="#8dd3c7" stroke="transparent" points="127,-10 127,-30 147,-30 147,-10 127,-10"/>
<text text-anchor="start" x="150.73" y="-15.4" font-family="sans-serif" font-size="14.00"> &#160;Module</text>
<polygon fill="#80b1d3" stroke="transparent" points="213,-10 213,-30 233,-30 233,-10 213,-10"/>
<text text-anchor="start" x="236.78" y="-15.4" font-family="sans-serif" font-size="14.00"> &#160;Bootstrap</text>
<polygon fill="#fdb462" stroke="transparent" points="310,-10 310,-30 330,-30 330,-10 310,-10"/>
<text text-anchor="start" x="333.67" y="-15.4" font-family="sans-serif" font-size="14.00"> &#160;Providers</text>
<polygon fill="#fb8072" stroke="transparent" points="406,-10 406,-30 426,-30 426,-10 406,-10"/>
<text text-anchor="start" x="429.73" y="-15.4" font-family="sans-serif" font-size="14.00"> &#160;Exports</text>
<g id="clust1" class="cluster">
<title>cluster_KitchenDietitianModule</title>
<polygon fill="none" stroke="black" stroke-dasharray="1,5" points="34,-70 34,-268 462,-268 462,-70 34,-70"/>
</g>
<g id="clust5" class="cluster">
<title>cluster_KitchenDietitianModule_exports</title>
<polygon fill="none" stroke="black" points="189,-208 189,-260 363,-260 363,-208 189,-208"/>
</g>
<g id="clust4" class="cluster">
<title>cluster_KitchenDietitianModule_imports</title>
<polygon fill="none" stroke="black" points="222,-78 222,-130 454,-130 454,-78 222,-78"/>
</g>
<g id="clust2" class="cluster">
<title>cluster_KitchenDietitianModule_declarations</title>
<polygon fill="none" stroke="black" points="42,-78 42,-130 214,-130 214,-78 42,-78"/>
</g>
<!-- KitchenMainComponent -->
<g id="node1" class="node">
<title>KitchenMainComponent</title>
<polygon fill="#ffffb3" stroke="black" points="205.7,-122 50.3,-122 50.3,-86 205.7,-86 205.7,-122"/>
<text text-anchor="middle" x="128" y="-99.8" font-family="Times,serif" font-size="14.00">KitchenMainComponent</text>
</g>
<!-- KitchenDietitianModule -->
<g id="node2" class="node">
<title>KitchenDietitianModule</title>
<polygon fill="#8dd3c7" stroke="black" points="352.36,-187 349.36,-191 328.36,-191 325.36,-187 199.64,-187 199.64,-151 352.36,-151 352.36,-187"/>
<text text-anchor="middle" x="276" y="-164.8" font-family="Times,serif" font-size="14.00">KitchenDietitianModule</text>
</g>
<!-- KitchenMainComponent&#45;&gt;KitchenDietitianModule -->
<g id="edge1" class="edge">
<title>KitchenMainComponent&#45;&gt;KitchenDietitianModule</title>
<path fill="none" stroke="black" d="M205.81,-104C213.16,-104 217.94,-104 217.94,-104 217.94,-104 217.94,-140.89 217.94,-140.89"/>
<polygon fill="black" stroke="black" points="214.44,-140.89 217.94,-150.89 221.44,-140.89 214.44,-140.89"/>
</g>
<!-- KitchenMainComponent  -->
<g id="node5" class="node">
<title>KitchenMainComponent </title>
<polygon fill="#fb8072" stroke="black" points="355.2,-252 196.8,-252 196.8,-216 355.2,-216 355.2,-252"/>
<text text-anchor="middle" x="276" y="-229.8" font-family="Times,serif" font-size="14.00">KitchenMainComponent </text>
</g>
<!-- KitchenDietitianModule&#45;&gt;KitchenMainComponent  -->
<g id="edge4" class="edge">
<title>KitchenDietitianModule&#45;&gt;KitchenMainComponent </title>
<path fill="none" stroke="black" stroke-dasharray="5,2" d="M276,-187.11C276,-187.11 276,-205.99 276,-205.99"/>
<polygon fill="black" stroke="black" points="272.5,-205.99 276,-215.99 279.5,-205.99 272.5,-205.99"/>
</g>
<!-- MaterialModule -->
<g id="node3" class="node">
<title>MaterialModule</title>
<polygon fill="#8dd3c7" stroke="black" points="446.47,-122 443.47,-126 422.47,-126 419.47,-122 339.53,-122 339.53,-86 446.47,-86 446.47,-122"/>
<text text-anchor="middle" x="393" y="-99.8" font-family="Times,serif" font-size="14.00">MaterialModule</text>
</g>
<!-- MaterialModule&#45;&gt;KitchenDietitianModule -->
<g id="edge2" class="edge">
<title>MaterialModule&#45;&gt;KitchenDietitianModule</title>
<path fill="none" stroke="black" d="M345.97,-122.11C345.97,-122.11 345.97,-140.99 345.97,-140.99"/>
<polygon fill="black" stroke="black" points="342.47,-140.99 345.97,-150.99 349.47,-140.99 342.47,-140.99"/>
</g>
<!-- ToolsModule -->
<g id="node4" class="node">
<title>ToolsModule</title>
<polygon fill="#8dd3c7" stroke="black" points="321.94,-122 318.94,-126 297.94,-126 294.94,-122 230.06,-122 230.06,-86 321.94,-86 321.94,-122"/>
<text text-anchor="middle" x="276" y="-99.8" font-family="Times,serif" font-size="14.00">ToolsModule</text>
</g>
<!-- ToolsModule&#45;&gt;KitchenDietitianModule -->
<g id="edge3" class="edge">
<title>ToolsModule&#45;&gt;KitchenDietitianModule</title>
<path fill="none" stroke="black" d="M276,-122.11C276,-122.11 276,-140.99 276,-140.99"/>
<polygon fill="black" stroke="black" points="272.5,-140.99 276,-150.99 279.5,-140.99 272.5,-140.99"/>
</g>
</g>
</svg>
