<?xml version="1.0" encoding="UTF-8" standalone="no"?>
<!DOCTYPE svg PUBLIC "-//W3C//DTD SVG 1.1//EN"
 "http://www.w3.org/Graphics/SVG/1.1/DTD/svg11.dtd">
<!-- Generated by graphviz version 2.44.1 (20200629.0846)
 -->
<!-- Title: dependencies Pages: 1 -->
<svg width="1828pt" height="284pt"
 viewBox="0.00 0.00 1828.00 284.00" xmlns="http://www.w3.org/2000/svg" xmlns:xlink="http://www.w3.org/1999/xlink">
<g id="graph0" class="graph" transform="scale(1 1) rotate(0) translate(4 280)">
<title>dependencies</title>
<polygon fill="white" stroke="transparent" points="-4,4 -4,-280 1824,-280 1824,4 -4,4"/>
<text text-anchor="start" x="889.01" y="-42.4" font-family="sans-serif" font-weight="bold" font-size="14.00">Legend</text>
<polygon fill="#ffffb3" stroke="transparent" points="676,-10 676,-30 696,-30 696,-10 676,-10"/>
<text text-anchor="start" x="699.63" y="-15.4" font-family="sans-serif" font-size="14.00"> &#160;Declarations</text>
<polygon fill="#8dd3c7" stroke="transparent" points="789,-10 789,-30 809,-30 809,-10 789,-10"/>
<text text-anchor="start" x="812.73" y="-15.4" font-family="sans-serif" font-size="14.00"> &#160;Module</text>
<polygon fill="#80b1d3" stroke="transparent" points="875,-10 875,-30 895,-30 895,-10 875,-10"/>
<text text-anchor="start" x="898.78" y="-15.4" font-family="sans-serif" font-size="14.00"> &#160;Bootstrap</text>
<polygon fill="#fdb462" stroke="transparent" points="972,-10 972,-30 992,-30 992,-10 972,-10"/>
<text text-anchor="start" x="995.67" y="-15.4" font-family="sans-serif" font-size="14.00"> &#160;Providers</text>
<polygon fill="#fb8072" stroke="transparent" points="1068,-10 1068,-30 1088,-30 1088,-10 1068,-10"/>
<text text-anchor="start" x="1091.73" y="-15.4" font-family="sans-serif" font-size="14.00"> &#160;Exports</text>
<g id="clust1" class="cluster">
<title>cluster_PatientMovementModule</title>
<polygon fill="none" stroke="black" stroke-dasharray="1,5" points="8,-70 8,-268 1812,-268 1812,-70 8,-70"/>
</g>
<g id="clust2" class="cluster">
<title>cluster_PatientMovementModule_declarations</title>
<polygon fill="none" stroke="black" points="256,-78 256,-130 1804,-130 1804,-78 256,-78"/>
</g>
<g id="clust10" class="cluster">
<title>cluster_PatientMovementModule_exports</title>
<polygon fill="none" stroke="black" points="731,-208 731,-260 923,-260 923,-208 731,-208"/>
</g>
<g id="clust9" class="cluster">
<title>cluster_PatientMovementModule_imports</title>
<polygon fill="none" stroke="black" points="16,-78 16,-130 248,-130 248,-78 16,-78"/>
</g>
<!-- MovementMainComponent -->
<g id="node1" class="node">
<title>MovementMainComponent</title>
<polygon fill="#ffffb3" stroke="black" points="1795.54,-122 1624.46,-122 1624.46,-86 1795.54,-86 1795.54,-122"/>
<text text-anchor="middle" x="1710" y="-99.8" font-family="Times,serif" font-size="14.00">MovementMainComponent</text>
</g>
<!-- PatientMovementModule -->
<g id="node7" class="node">
<title>PatientMovementModule</title>
<polygon fill="#8dd3c7" stroke="black" points="906.59,-187 903.59,-191 882.59,-191 879.59,-187 747.41,-187 747.41,-151 906.59,-151 906.59,-187"/>
<text text-anchor="middle" x="827" y="-164.8" font-family="Times,serif" font-size="14.00">PatientMovementModule</text>
</g>
<!-- MovementMainComponent&#45;&gt;PatientMovementModule -->
<g id="edge1" class="edge">
<title>MovementMainComponent&#45;&gt;PatientMovementModule</title>
<path fill="none" stroke="black" d="M1710,-122.29C1710,-144.21 1710,-178 1710,-178 1710,-178 916.92,-178 916.92,-178"/>
<polygon fill="black" stroke="black" points="916.92,-174.5 906.92,-178 916.92,-181.5 916.92,-174.5"/>
</g>
<!-- PatientMovementAddWorkerComponent -->
<g id="node2" class="node">
<title>PatientMovementAddWorkerComponent</title>
<polygon fill="#ffffb3" stroke="black" points="1605.73,-122 1358.27,-122 1358.27,-86 1605.73,-86 1605.73,-122"/>
<text text-anchor="middle" x="1482" y="-99.8" font-family="Times,serif" font-size="14.00">PatientMovementAddWorkerComponent</text>
</g>
<!-- PatientMovementAddWorkerComponent&#45;&gt;PatientMovementModule -->
<g id="edge2" class="edge">
<title>PatientMovementAddWorkerComponent&#45;&gt;PatientMovementModule</title>
<path fill="none" stroke="black" d="M1482,-122.11C1482,-141.34 1482,-169 1482,-169 1482,-169 916.66,-169 916.66,-169"/>
<polygon fill="black" stroke="black" points="916.66,-165.5 906.66,-169 916.66,-172.5 916.66,-165.5"/>
</g>
<!-- PatientMovementLogsComponent -->
<g id="node3" class="node">
<title>PatientMovementLogsComponent</title>
<polygon fill="#ffffb3" stroke="black" points="1340.37,-122 1131.63,-122 1131.63,-86 1340.37,-86 1340.37,-122"/>
<text text-anchor="middle" x="1236" y="-99.8" font-family="Times,serif" font-size="14.00">PatientMovementLogsComponent</text>
</g>
<!-- PatientMovementLogsComponent&#45;&gt;PatientMovementModule -->
<g id="edge3" class="edge">
<title>PatientMovementLogsComponent&#45;&gt;PatientMovementModule</title>
<path fill="none" stroke="black" d="M1236,-122.03C1236,-138.4 1236,-160 1236,-160 1236,-160 916.83,-160 916.83,-160"/>
<polygon fill="black" stroke="black" points="916.83,-156.5 906.83,-160 916.83,-163.5 916.83,-156.5"/>
</g>
<!-- PatientMovementWorkerDetailsComponent -->
<g id="node4" class="node">
<title>PatientMovementWorkerDetailsComponent</title>
<polygon fill="#ffffb3" stroke="black" points="1113.77,-122 850.23,-122 850.23,-86 1113.77,-86 1113.77,-122"/>
<text text-anchor="middle" x="982" y="-99.8" font-family="Times,serif" font-size="14.00">PatientMovementWorkerDetailsComponent</text>
</g>
<!-- PatientMovementWorkerDetailsComponent&#45;&gt;PatientMovementModule -->
<g id="edge4" class="edge">
<title>PatientMovementWorkerDetailsComponent&#45;&gt;PatientMovementModule</title>
<path fill="none" stroke="black" d="M878.45,-122.11C878.45,-122.11 878.45,-140.99 878.45,-140.99"/>
<polygon fill="black" stroke="black" points="874.95,-140.99 878.45,-150.99 881.95,-140.99 874.95,-140.99"/>
</g>
<!-- PatientMovementWorkerPasswordChangeComponent -->
<g id="node5" class="node">
<title>PatientMovementWorkerPasswordChangeComponent</title>
<polygon fill="#ffffb3" stroke="black" points="832.04,-122 511.96,-122 511.96,-86 832.04,-86 832.04,-122"/>
<text text-anchor="middle" x="672" y="-99.8" font-family="Times,serif" font-size="14.00">PatientMovementWorkerPasswordChangeComponent</text>
</g>
<!-- PatientMovementWorkerPasswordChangeComponent&#45;&gt;PatientMovementModule -->
<g id="edge5" class="edge">
<title>PatientMovementWorkerPasswordChangeComponent&#45;&gt;PatientMovementModule</title>
<path fill="none" stroke="black" d="M789.74,-122.11C789.74,-122.11 789.74,-140.99 789.74,-140.99"/>
<polygon fill="black" stroke="black" points="786.24,-140.99 789.74,-150.99 793.24,-140.99 786.24,-140.99"/>
</g>
<!-- PatientMovementWorkersComponent -->
<g id="node6" class="node">
<title>PatientMovementWorkersComponent</title>
<polygon fill="#ffffb3" stroke="black" points="493.57,-122 264.43,-122 264.43,-86 493.57,-86 493.57,-122"/>
<text text-anchor="middle" x="379" y="-99.8" font-family="Times,serif" font-size="14.00">PatientMovementWorkersComponent</text>
</g>
<!-- PatientMovementWorkersComponent&#45;&gt;PatientMovementModule -->
<g id="edge6" class="edge">
<title>PatientMovementWorkersComponent&#45;&gt;PatientMovementModule</title>
<path fill="none" stroke="black" d="M379,-122.03C379,-138.4 379,-160 379,-160 379,-160 737.42,-160 737.42,-160"/>
<polygon fill="black" stroke="black" points="737.42,-163.5 747.42,-160 737.42,-156.5 737.42,-163.5"/>
</g>
<!-- MovementMainComponent  -->
<g id="node10" class="node">
<title>MovementMainComponent </title>
<polygon fill="#fb8072" stroke="black" points="914.54,-252 739.46,-252 739.46,-216 914.54,-216 914.54,-252"/>
<text text-anchor="middle" x="827" y="-229.8" font-family="Times,serif" font-size="14.00">MovementMainComponent </text>
</g>
<!-- PatientMovementModule&#45;&gt;MovementMainComponent  -->
<g id="edge9" class="edge">
<title>PatientMovementModule&#45;&gt;MovementMainComponent </title>
<path fill="none" stroke="black" stroke-dasharray="5,2" d="M827,-187.11C827,-187.11 827,-205.99 827,-205.99"/>
<polygon fill="black" stroke="black" points="823.5,-205.99 827,-215.99 830.5,-205.99 823.5,-205.99"/>
</g>
<!-- MaterialModule -->
<g id="node8" class="node">
<title>MaterialModule</title>
<polygon fill="#8dd3c7" stroke="black" points="240.47,-122 237.47,-126 216.47,-126 213.47,-122 133.53,-122 133.53,-86 240.47,-86 240.47,-122"/>
<text text-anchor="middle" x="187" y="-99.8" font-family="Times,serif" font-size="14.00">MaterialModule</text>
</g>
<!-- MaterialModule&#45;&gt;PatientMovementModule -->
<g id="edge7" class="edge">
<title>MaterialModule&#45;&gt;PatientMovementModule</title>
<path fill="none" stroke="black" d="M187,-122.11C187,-141.34 187,-169 187,-169 187,-169 737.24,-169 737.24,-169"/>
<polygon fill="black" stroke="black" points="737.24,-172.5 747.24,-169 737.24,-165.5 737.24,-172.5"/>
</g>
<!-- ToolsModule -->
<g id="node9" class="node">
<title>ToolsModule</title>
<polygon fill="#8dd3c7" stroke="black" points="115.94,-122 112.94,-126 91.94,-126 88.94,-122 24.06,-122 24.06,-86 115.94,-86 115.94,-122"/>
<text text-anchor="middle" x="70" y="-99.8" font-family="Times,serif" font-size="14.00">ToolsModule</text>
</g>
<!-- ToolsModule&#45;&gt;PatientMovementModule -->
<g id="edge8" class="edge">
<title>ToolsModule&#45;&gt;PatientMovementModule</title>
<path fill="none" stroke="black" d="M70,-122.29C70,-144.21 70,-178 70,-178 70,-178 737.42,-178 737.42,-178"/>
<polygon fill="black" stroke="black" points="737.42,-181.5 747.42,-178 737.42,-174.5 737.42,-181.5"/>
</g>
</g>
</svg>
