<?xml version="1.0" encoding="UTF-8" standalone="no"?>
<!DOCTYPE svg PUBLIC "-//W3C//DTD SVG 1.1//EN"
 "http://www.w3.org/Graphics/SVG/1.1/DTD/svg11.dtd">
<!-- Generated by graphviz version 2.44.1 (20200629.0846)
 -->
<!-- Title: dependencies Pages: 1 -->
<svg width="1828pt" height="284pt"
 viewBox="0.00 0.00 1828.00 284.00" xmlns="http://www.w3.org/2000/svg" xmlns:xlink="http://www.w3.org/1999/xlink">
<g id="graph0" class="graph" transform="scale(1 1) rotate(0) translate(4 280)">
<title>dependencies</title>
<polygon fill="white" stroke="transparent" points="-4,4 -4,-280 1824,-280 1824,4 -4,4"/>
<text text-anchor="start" x="889.01" y="-42.4" font-family="sans-serif" font-weight="bold" font-size="14.00">Legend</text>
<polygon fill="#ffffb3" stroke="transparent" points="676,-10 676,-30 696,-30 696,-10 676,-10"/>
<text text-anchor="start" x="699.63" y="-15.4" font-family="sans-serif" font-size="14.00"> &#160;Declarations</text>
<polygon fill="#8dd3c7" stroke="transparent" points="789,-10 789,-30 809,-30 809,-10 789,-10"/>
<text text-anchor="start" x="812.73" y="-15.4" font-family="sans-serif" font-size="14.00"> &#160;Module</text>
<polygon fill="#80b1d3" stroke="transparent" points="875,-10 875,-30 895,-30 895,-10 875,-10"/>
<text text-anchor="start" x="898.78" y="-15.4" font-family="sans-serif" font-size="14.00"> &#160;Bootstrap</text>
<polygon fill="#fdb462" stroke="transparent" points="972,-10 972,-30 992,-30 992,-10 972,-10"/>
<text text-anchor="start" x="995.67" y="-15.4" font-family="sans-serif" font-size="14.00"> &#160;Providers</text>
<polygon fill="#fb8072" stroke="transparent" points="1068,-10 1068,-30 1088,-30 1088,-10 1068,-10"/>
<text text-anchor="start" x="1091.73" y="-15.4" font-family="sans-serif" font-size="14.00"> &#160;Exports</text>
<g id="clust1" class="cluster">
<title>cluster_PatientMovementModule</title>
<polygon fill="none" stroke="black" stroke-dasharray="1,5" points="8,-70 8,-268 1812,-268 1812,-70 8,-70"/>
</g>
<g id="clust9" class="cluster">
<title>cluster_PatientMovementModule_imports</title>
<polygon fill="none" stroke="black" points="1572,-78 1572,-130 1804,-130 1804,-78 1572,-78"/>
</g>
<g id="clust10" class="cluster">
<title>cluster_PatientMovementModule_exports</title>
<polygon fill="none" stroke="black" points="1023,-208 1023,-260 1215,-260 1215,-208 1023,-208"/>
</g>
<g id="clust2" class="cluster">
<title>cluster_PatientMovementModule_declarations</title>
<polygon fill="none" stroke="black" points="16,-78 16,-130 1564,-130 1564,-78 16,-78"/>
</g>
<!-- MovementMainComponent -->
<g id="node1" class="node">
<title>MovementMainComponent</title>
<polygon fill="#ffffb3" stroke="black" points="1555.54,-122 1384.46,-122 1384.46,-86 1555.54,-86 1555.54,-122"/>
<text text-anchor="middle" x="1470" y="-99.8" font-family="Times,serif" font-size="14.00">MovementMainComponent</text>
</g>
<!-- PatientMovementModule -->
<g id="node7" class="node">
<title>PatientMovementModule</title>
<polygon fill="#8dd3c7" stroke="black" points="1198.59,-187 1195.59,-191 1174.59,-191 1171.59,-187 1039.41,-187 1039.41,-151 1198.59,-151 1198.59,-187"/>
<text text-anchor="middle" x="1119" y="-164.8" font-family="Times,serif" font-size="14.00">PatientMovementModule</text>
</g>
<!-- MovementMainComponent&#45;&gt;PatientMovementModule -->
<g id="edge1" class="edge">
<title>MovementMainComponent&#45;&gt;PatientMovementModule</title>
<path fill="none" stroke="black" d="M1470,-122.03C1470,-138.4 1470,-160 1470,-160 1470,-160 1208.65,-160 1208.65,-160"/>
<polygon fill="black" stroke="black" points="1208.65,-156.5 1198.65,-160 1208.65,-163.5 1208.65,-156.5"/>
</g>
<!-- PatientMovementAddWorkerComponent -->
<g id="node2" class="node">
<title>PatientMovementAddWorkerComponent</title>
<polygon fill="#ffffb3" stroke="black" points="1365.73,-122 1118.27,-122 1118.27,-86 1365.73,-86 1365.73,-122"/>
<text text-anchor="middle" x="1242" y="-99.8" font-family="Times,serif" font-size="14.00">PatientMovementAddWorkerComponent</text>
</g>
<!-- PatientMovementAddWorkerComponent&#45;&gt;PatientMovementModule -->
<g id="edge2" class="edge">
<title>PatientMovementAddWorkerComponent&#45;&gt;PatientMovementModule</title>
<path fill="none" stroke="black" d="M1158.34,-122.11C1158.34,-122.11 1158.34,-140.99 1158.34,-140.99"/>
<polygon fill="black" stroke="black" points="1154.84,-140.99 1158.34,-150.99 1161.84,-140.99 1154.84,-140.99"/>
</g>
<!-- PatientMovementLogsComponent -->
<g id="node3" class="node">
<title>PatientMovementLogsComponent</title>
<polygon fill="#ffffb3" stroke="black" points="1100.37,-122 891.63,-122 891.63,-86 1100.37,-86 1100.37,-122"/>
<text text-anchor="middle" x="996" y="-99.8" font-family="Times,serif" font-size="14.00">PatientMovementLogsComponent</text>
</g>
<!-- PatientMovementLogsComponent&#45;&gt;PatientMovementModule -->
<g id="edge3" class="edge">
<title>PatientMovementLogsComponent&#45;&gt;PatientMovementModule</title>
<path fill="none" stroke="black" d="M1069.94,-122.11C1069.94,-122.11 1069.94,-140.99 1069.94,-140.99"/>
<polygon fill="black" stroke="black" points="1066.45,-140.99 1069.94,-150.99 1073.45,-140.99 1066.45,-140.99"/>
</g>
<!-- PatientMovementWorkerDetailsComponent -->
<g id="node4" class="node">
<title>PatientMovementWorkerDetailsComponent</title>
<polygon fill="#ffffb3" stroke="black" points="873.77,-122 610.23,-122 610.23,-86 873.77,-86 873.77,-122"/>
<text text-anchor="middle" x="742" y="-99.8" font-family="Times,serif" font-size="14.00">PatientMovementWorkerDetailsComponent</text>
</g>
<!-- PatientMovementWorkerDetailsComponent&#45;&gt;PatientMovementModule -->
<g id="edge4" class="edge">
<title>PatientMovementWorkerDetailsComponent&#45;&gt;PatientMovementModule</title>
<path fill="none" stroke="black" d="M742,-122.03C742,-138.4 742,-160 742,-160 742,-160 1029.05,-160 1029.05,-160"/>
<polygon fill="black" stroke="black" points="1029.05,-163.5 1039.05,-160 1029.05,-156.5 1029.05,-163.5"/>
</g>
<!-- PatientMovementWorkerPasswordChangeComponent -->
<g id="node5" class="node">
<title>PatientMovementWorkerPasswordChangeComponent</title>
<polygon fill="#ffffb3" stroke="black" points="592.04,-122 271.96,-122 271.96,-86 592.04,-86 592.04,-122"/>
<text text-anchor="middle" x="432" y="-99.8" font-family="Times,serif" font-size="14.00">PatientMovementWorkerPasswordChangeComponent</text>
</g>
<!-- PatientMovementWorkerPasswordChangeComponent&#45;&gt;PatientMovementModule -->
<g id="edge5" class="edge">
<title>PatientMovementWorkerPasswordChangeComponent&#45;&gt;PatientMovementModule</title>
<path fill="none" stroke="black" d="M432,-122.11C432,-141.34 432,-169 432,-169 432,-169 1029.18,-169 1029.18,-169"/>
<polygon fill="black" stroke="black" points="1029.18,-172.5 1039.18,-169 1029.18,-165.5 1029.18,-172.5"/>
</g>
<!-- PatientMovementWorkersComponent -->
<g id="node6" class="node">
<title>PatientMovementWorkersComponent</title>
<polygon fill="#ffffb3" stroke="black" points="253.57,-122 24.43,-122 24.43,-86 253.57,-86 253.57,-122"/>
<text text-anchor="middle" x="139" y="-99.8" font-family="Times,serif" font-size="14.00">PatientMovementWorkersComponent</text>
</g>
<!-- PatientMovementWorkersComponent&#45;&gt;PatientMovementModule -->
<g id="edge6" class="edge">
<title>PatientMovementWorkersComponent&#45;&gt;PatientMovementModule</title>
<path fill="none" stroke="black" d="M139,-122.29C139,-144.21 139,-178 139,-178 139,-178 1029.22,-178 1029.22,-178"/>
<polygon fill="black" stroke="black" points="1029.22,-181.5 1039.22,-178 1029.22,-174.5 1029.22,-181.5"/>
</g>
<!-- MovementMainComponent  -->
<g id="node10" class="node">
<title>MovementMainComponent </title>
<polygon fill="#fb8072" stroke="black" points="1206.54,-252 1031.46,-252 1031.46,-216 1206.54,-216 1206.54,-252"/>
<text text-anchor="middle" x="1119" y="-229.8" font-family="Times,serif" font-size="14.00">MovementMainComponent </text>
</g>
<!-- PatientMovementModule&#45;&gt;MovementMainComponent  -->
<g id="edge9" class="edge">
<title>PatientMovementModule&#45;&gt;MovementMainComponent </title>
<path fill="none" stroke="black" stroke-dasharray="5,2" d="M1119,-187.11C1119,-187.11 1119,-205.99 1119,-205.99"/>
<polygon fill="black" stroke="black" points="1115.5,-205.99 1119,-215.99 1122.5,-205.99 1115.5,-205.99"/>
</g>
<!-- MaterialModule -->
<g id="node8" class="node">
<title>MaterialModule</title>
<polygon fill="#8dd3c7" stroke="black" points="1796.47,-122 1793.47,-126 1772.47,-126 1769.47,-122 1689.53,-122 1689.53,-86 1796.47,-86 1796.47,-122"/>
<text text-anchor="middle" x="1743" y="-99.8" font-family="Times,serif" font-size="14.00">MaterialModule</text>
</g>
<!-- MaterialModule&#45;&gt;PatientMovementModule -->
<g id="edge7" class="edge">
<title>MaterialModule&#45;&gt;PatientMovementModule</title>
<path fill="none" stroke="black" d="M1743,-122.29C1743,-144.21 1743,-178 1743,-178 1743,-178 1208.66,-178 1208.66,-178"/>
<polygon fill="black" stroke="black" points="1208.66,-174.5 1198.66,-178 1208.66,-181.5 1208.66,-174.5"/>
</g>
<!-- ToolsModule -->
<g id="node9" class="node">
<title>ToolsModule</title>
<polygon fill="#8dd3c7" stroke="black" points="1671.94,-122 1668.94,-126 1647.94,-126 1644.94,-122 1580.06,-122 1580.06,-86 1671.94,-86 1671.94,-122"/>
<text text-anchor="middle" x="1626" y="-99.8" font-family="Times,serif" font-size="14.00">ToolsModule</text>
</g>
<!-- ToolsModule&#45;&gt;PatientMovementModule -->
<g id="edge8" class="edge">
<title>ToolsModule&#45;&gt;PatientMovementModule</title>
<path fill="none" stroke="black" d="M1626,-122.11C1626,-141.34 1626,-169 1626,-169 1626,-169 1208.78,-169 1208.78,-169"/>
<polygon fill="black" stroke="black" points="1208.78,-165.5 1198.78,-169 1208.78,-172.5 1208.78,-165.5"/>
</g>
</g>
</svg>
