<?xml version="1.0" encoding="UTF-8" standalone="no"?>
<!DOCTYPE svg PUBLIC "-//W3C//DTD SVG 1.1//EN"
 "http://www.w3.org/Graphics/SVG/1.1/DTD/svg11.dtd">
<!-- Generated by graphviz version 2.44.1 (20200629.0846)
 -->
<!-- Title: dependencies Pages: 1 -->
<svg width="1097pt" height="211pt"
 viewBox="0.00 0.00 1097.00 211.00" xmlns="http://www.w3.org/2000/svg" xmlns:xlink="http://www.w3.org/1999/xlink">
<g id="graph0" class="graph" transform="scale(1 1) rotate(0) translate(4 207)">
<title>dependencies</title>
<polygon fill="white" stroke="transparent" points="-4,4 -4,-207 1093,-207 1093,4 -4,4"/>
<text text-anchor="start" x="523.51" y="-42.4" font-family="sans-serif" font-weight="bold" font-size="14.00">Legend</text>
<polygon fill="#ffffb3" stroke="transparent" points="310.5,-10 310.5,-30 330.5,-30 330.5,-10 310.5,-10"/>
<text text-anchor="start" x="334.13" y="-15.4" font-family="sans-serif" font-size="14.00"> &#160;Declarations</text>
<polygon fill="#8dd3c7" stroke="transparent" points="423.5,-10 423.5,-30 443.5,-30 443.5,-10 423.5,-10"/>
<text text-anchor="start" x="447.23" y="-15.4" font-family="sans-serif" font-size="14.00"> &#160;Module</text>
<polygon fill="#80b1d3" stroke="transparent" points="509.5,-10 509.5,-30 529.5,-30 529.5,-10 509.5,-10"/>
<text text-anchor="start" x="533.28" y="-15.4" font-family="sans-serif" font-size="14.00"> &#160;Bootstrap</text>
<polygon fill="#fdb462" stroke="transparent" points="606.5,-10 606.5,-30 626.5,-30 626.5,-10 606.5,-10"/>
<text text-anchor="start" x="630.17" y="-15.4" font-family="sans-serif" font-size="14.00"> &#160;Providers</text>
<polygon fill="#fb8072" stroke="transparent" points="702.5,-10 702.5,-30 722.5,-30 722.5,-10 702.5,-10"/>
<text text-anchor="start" x="726.23" y="-15.4" font-family="sans-serif" font-size="14.00"> &#160;Exports</text>
<g id="clust1" class="cluster">
<title>cluster_WardNurseModule</title>
<polygon fill="none" stroke="black" stroke-dasharray="1,5" points="8,-70 8,-195 1081,-195 1081,-70 8,-70"/>
</g>
<g id="clust2" class="cluster">
<title>cluster_WardNurseModule_declarations</title>
<polygon fill="none" stroke="black" points="256,-78 256,-130 1073,-130 1073,-78 256,-78"/>
</g>
<g id="clust7" class="cluster">
<title>cluster_WardNurseModule_imports</title>
<polygon fill="none" stroke="black" points="16,-78 16,-130 248,-130 248,-78 16,-78"/>
</g>
<!-- NurseMainComponent -->
<g id="node1" class="node">
<title>NurseMainComponent</title>
<polygon fill="#ffffb3" stroke="black" points="1065.31,-122 920.69,-122 920.69,-86 1065.31,-86 1065.31,-122"/>
<text text-anchor="middle" x="993" y="-99.8" font-family="Times,serif" font-size="14.00">NurseMainComponent</text>
</g>
<!-- WardNurseModule -->
<g id="node5" class="node">
<title>WardNurseModule</title>
<polygon fill="#8dd3c7" stroke="black" points="550.07,-187 547.07,-191 526.07,-191 523.07,-187 425.93,-187 425.93,-151 550.07,-151 550.07,-187"/>
<text text-anchor="middle" x="488" y="-164.8" font-family="Times,serif" font-size="14.00">WardNurseModule</text>
</g>
<!-- NurseMainComponent&#45;&gt;WardNurseModule -->
<g id="edge1" class="edge">
<title>NurseMainComponent&#45;&gt;WardNurseModule</title>
<path fill="none" stroke="black" d="M993,-122.28C993,-143.32 993,-175 993,-175 993,-175 560.18,-175 560.18,-175"/>
<polygon fill="black" stroke="black" points="560.18,-171.5 550.18,-175 560.18,-178.5 560.18,-171.5"/>
</g>
<!-- NurseMealsOrdersComponent -->
<g id="node2" class="node">
<title>NurseMealsOrdersComponent</title>
<polygon fill="#ffffb3" stroke="black" points="902.55,-122 715.45,-122 715.45,-86 902.55,-86 902.55,-122"/>
<text text-anchor="middle" x="809" y="-99.8" font-family="Times,serif" font-size="14.00">NurseMealsOrdersComponent</text>
</g>
<!-- NurseMealsOrdersComponent&#45;&gt;WardNurseModule -->
<g id="edge2" class="edge">
<title>NurseMealsOrdersComponent&#45;&gt;WardNurseModule</title>
<path fill="none" stroke="black" d="M809,-122.02C809,-139.37 809,-163 809,-163 809,-163 560.27,-163 560.27,-163"/>
<polygon fill="black" stroke="black" points="560.27,-159.5 550.27,-163 560.27,-166.5 560.27,-159.5"/>
</g>
<!-- NursePatientDetailsComponent -->
<g id="node3" class="node">
<title>NursePatientDetailsComponent</title>
<polygon fill="#ffffb3" stroke="black" points="697.79,-122 504.21,-122 504.21,-86 697.79,-86 697.79,-122"/>
<text text-anchor="middle" x="601" y="-99.8" font-family="Times,serif" font-size="14.00">NursePatientDetailsComponent</text>
</g>
<!-- NursePatientDetailsComponent&#45;&gt;WardNurseModule -->
<g id="edge3" class="edge">
<title>NursePatientDetailsComponent&#45;&gt;WardNurseModule</title>
<path fill="none" stroke="black" d="M527.19,-122.11C527.19,-122.11 527.19,-140.99 527.19,-140.99"/>
<polygon fill="black" stroke="black" points="523.69,-140.99 527.19,-150.99 530.69,-140.99 523.69,-140.99"/>
</g>
<!-- NursePatientRegistrationComponent -->
<g id="node4" class="node">
<title>NursePatientRegistrationComponent</title>
<polygon fill="#ffffb3" stroke="black" points="486.08,-122 263.92,-122 263.92,-86 486.08,-86 486.08,-122"/>
<text text-anchor="middle" x="375" y="-99.8" font-family="Times,serif" font-size="14.00">NursePatientRegistrationComponent</text>
</g>
<!-- NursePatientRegistrationComponent&#45;&gt;WardNurseModule -->
<g id="edge4" class="edge">
<title>NursePatientRegistrationComponent&#45;&gt;WardNurseModule</title>
<path fill="none" stroke="black" d="M456,-122.11C456,-122.11 456,-140.99 456,-140.99"/>
<polygon fill="black" stroke="black" points="452.5,-140.99 456,-150.99 459.5,-140.99 452.5,-140.99"/>
</g>
<!-- MaterialModule -->
<g id="node6" class="node">
<title>MaterialModule</title>
<polygon fill="#8dd3c7" stroke="black" points="240.47,-122 237.47,-126 216.47,-126 213.47,-122 133.53,-122 133.53,-86 240.47,-86 240.47,-122"/>
<text text-anchor="middle" x="187" y="-99.8" font-family="Times,serif" font-size="14.00">MaterialModule</text>
</g>
<!-- MaterialModule&#45;&gt;WardNurseModule -->
<g id="edge5" class="edge">
<title>MaterialModule&#45;&gt;WardNurseModule</title>
<path fill="none" stroke="black" d="M187,-122.02C187,-139.37 187,-163 187,-163 187,-163 415.63,-163 415.63,-163"/>
<polygon fill="black" stroke="black" points="415.63,-166.5 425.63,-163 415.63,-159.5 415.63,-166.5"/>
</g>
<!-- ToolsModule -->
<g id="node7" class="node">
<title>ToolsModule</title>
<polygon fill="#8dd3c7" stroke="black" points="115.94,-122 112.94,-126 91.94,-126 88.94,-122 24.06,-122 24.06,-86 115.94,-86 115.94,-122"/>
<text text-anchor="middle" x="70" y="-99.8" font-family="Times,serif" font-size="14.00">ToolsModule</text>
</g>
<!-- ToolsModule&#45;&gt;WardNurseModule -->
<g id="edge6" class="edge">
<title>ToolsModule&#45;&gt;WardNurseModule</title>
<path fill="none" stroke="black" d="M70,-122.28C70,-143.32 70,-175 70,-175 70,-175 415.87,-175 415.87,-175"/>
<polygon fill="black" stroke="black" points="415.87,-178.5 425.87,-175 415.87,-171.5 415.87,-178.5"/>
</g>
</g>
</svg>
