<?xml version="1.0" encoding="UTF-8" standalone="no"?>
<!DOCTYPE svg PUBLIC "-//W3C//DTD SVG 1.1//EN"
 "http://www.w3.org/Graphics/SVG/1.1/DTD/svg11.dtd">
<!-- Generated by graphviz version 2.44.1 (20200629.0846)
 -->
<!-- Title: dependencies Pages: 1 -->
<svg width="638pt" height="211pt"
 viewBox="0.00 0.00 638.00 211.00" xmlns="http://www.w3.org/2000/svg" xmlns:xlink="http://www.w3.org/1999/xlink">
<g id="graph0" class="graph" transform="scale(1 1) rotate(0) translate(4 207)">
<title>dependencies</title>
<polygon fill="white" stroke="transparent" points="-4,4 -4,-207 634,-207 634,4 -4,4"/>
<text text-anchor="start" x="294.01" y="-42.4" font-family="sans-serif" font-weight="bold" font-size="14.00">Legend</text>
<polygon fill="#ffffb3" stroke="transparent" points="81,-10 81,-30 101,-30 101,-10 81,-10"/>
<text text-anchor="start" x="104.63" y="-15.4" font-family="sans-serif" font-size="14.00"> &#160;Declarations</text>
<polygon fill="#8dd3c7" stroke="transparent" points="194,-10 194,-30 214,-30 214,-10 194,-10"/>
<text text-anchor="start" x="217.73" y="-15.4" font-family="sans-serif" font-size="14.00"> &#160;Module</text>
<polygon fill="#80b1d3" stroke="transparent" points="280,-10 280,-30 300,-30 300,-10 280,-10"/>
<text text-anchor="start" x="303.78" y="-15.4" font-family="sans-serif" font-size="14.00"> &#160;Bootstrap</text>
<polygon fill="#fdb462" stroke="transparent" points="377,-10 377,-30 397,-30 397,-10 377,-10"/>
<text text-anchor="start" x="400.67" y="-15.4" font-family="sans-serif" font-size="14.00"> &#160;Providers</text>
<polygon fill="#fb8072" stroke="transparent" points="473,-10 473,-30 493,-30 493,-10 473,-10"/>
<text text-anchor="start" x="496.73" y="-15.4" font-family="sans-serif" font-size="14.00"> &#160;Exports</text>
<g id="clust1" class="cluster">
<title>cluster_LoginModule</title>
<polygon fill="none" stroke="black" stroke-dasharray="1,5" points="8,-70 8,-195 622,-195 622,-70 8,-70"/>
</g>
<g id="clust2" class="cluster">
<title>cluster_LoginModule_declarations</title>
<polygon fill="none" stroke="black" points="462,-78 462,-130 614,-130 614,-78 462,-78"/>
</g>
<g id="clust7" class="cluster">
<title>cluster_LoginModule_providers</title>
<polygon fill="none" stroke="black" points="146,-78 146,-130 454,-130 454,-78 146,-78"/>
</g>
<g id="clust4" class="cluster">
<title>cluster_LoginModule_imports</title>
<polygon fill="none" stroke="black" points="16,-78 16,-130 138,-130 138,-78 16,-78"/>
</g>
<!-- LoginSiteComponent -->
<g id="node1" class="node">
<title>LoginSiteComponent</title>
<polygon fill="#ffffb3" stroke="black" points="606.05,-122 469.95,-122 469.95,-86 606.05,-86 606.05,-122"/>
<text text-anchor="middle" x="538" y="-99.8" font-family="Times,serif" font-size="14.00">LoginSiteComponent</text>
</g>
<!-- LoginModule -->
<g id="node2" class="node">
<title>LoginModule</title>
<polygon fill="#8dd3c7" stroke="black" points="355.49,-187 352.49,-191 331.49,-191 328.49,-187 262.51,-187 262.51,-151 355.49,-151 355.49,-187"/>
<text text-anchor="middle" x="309" y="-164.8" font-family="Times,serif" font-size="14.00">LoginModule</text>
</g>
<!-- LoginSiteComponent&#45;&gt;LoginModule -->
<g id="edge1" class="edge">
<title>LoginSiteComponent&#45;&gt;LoginModule</title>
<path fill="none" stroke="black" d="M538,-122.11C538,-141.34 538,-169 538,-169 538,-169 365.62,-169 365.62,-169"/>
<polygon fill="black" stroke="black" points="365.62,-165.5 355.62,-169 365.62,-172.5 365.62,-165.5"/>
</g>
<!-- MaterialModule -->
<g id="node3" class="node">
<title>MaterialModule</title>
<polygon fill="#8dd3c7" stroke="black" points="130.47,-122 127.47,-126 106.47,-126 103.47,-122 23.53,-122 23.53,-86 130.47,-86 130.47,-122"/>
<text text-anchor="middle" x="77" y="-99.8" font-family="Times,serif" font-size="14.00">MaterialModule</text>
</g>
<!-- MaterialModule&#45;&gt;LoginModule -->
<g id="edge2" class="edge">
<title>MaterialModule&#45;&gt;LoginModule</title>
<path fill="none" stroke="black" d="M77,-122.11C77,-141.34 77,-169 77,-169 77,-169 252.33,-169 252.33,-169"/>
<polygon fill="black" stroke="black" points="252.33,-172.5 262.33,-169 252.33,-165.5 252.33,-172.5"/>
</g>
<!-- AuthService -->
<g id="node4" class="node">
<title>AuthService</title>
<ellipse fill="#fdb462" stroke="black" cx="387" cy="-104" rx="59.11" ry="18"/>
<text text-anchor="middle" x="387" y="-99.8" font-family="Times,serif" font-size="14.00">AuthService</text>
</g>
<!-- AuthService&#45;&gt;LoginModule -->
<g id="edge3" class="edge">
<title>AuthService&#45;&gt;LoginModule</title>
<path fill="none" stroke="black" d="M341.6,-115.62C341.6,-115.62 341.6,-140.85 341.6,-140.85"/>
<polygon fill="black" stroke="black" points="338.1,-140.85 341.6,-150.85 345.1,-140.85 338.1,-140.85"/>
</g>
<!-- TokenInterceptor -->
<g id="node5" class="node">
<title>TokenInterceptor</title>
<ellipse fill="#fdb462" stroke="black" cx="232" cy="-104" rx="78.13" ry="18"/>
<text text-anchor="middle" x="232" y="-99.8" font-family="Times,serif" font-size="14.00">TokenInterceptor</text>
</g>
<!-- TokenInterceptor&#45;&gt;LoginModule -->
<g id="edge4" class="edge">
<title>TokenInterceptor&#45;&gt;LoginModule</title>
<path fill="none" stroke="black" d="M286.28,-117.15C286.28,-117.15 286.28,-140.69 286.28,-140.69"/>
<polygon fill="black" stroke="black" points="282.78,-140.69 286.28,-150.69 289.78,-140.69 282.78,-140.69"/>
</g>
</g>
</svg>
