<?xml version="1.0" encoding="UTF-8" standalone="no"?>
<!DOCTYPE svg PUBLIC "-//W3C//DTD SVG 1.1//EN"
 "http://www.w3.org/Graphics/SVG/1.1/DTD/svg11.dtd">
<!-- Generated by graphviz version 2.44.1 (20200629.0846)
 -->
<!-- Title: dependencies Pages: 1 -->
<svg width="916pt" height="211pt"
 viewBox="0.00 0.00 916.00 211.00" xmlns="http://www.w3.org/2000/svg" xmlns:xlink="http://www.w3.org/1999/xlink">
<g id="graph0" class="graph" transform="scale(1 1) rotate(0) translate(4 207)">
<title>dependencies</title>
<polygon fill="white" stroke="transparent" points="-4,4 -4,-207 912,-207 912,4 -4,4"/>
<text text-anchor="start" x="433.01" y="-42.4" font-family="sans-serif" font-weight="bold" font-size="14.00">Legend</text>
<polygon fill="#ffffb3" stroke="transparent" points="220,-10 220,-30 240,-30 240,-10 220,-10"/>
<text text-anchor="start" x="243.63" y="-15.4" font-family="sans-serif" font-size="14.00"> &#160;Declarations</text>
<polygon fill="#8dd3c7" stroke="transparent" points="333,-10 333,-30 353,-30 353,-10 333,-10"/>
<text text-anchor="start" x="356.73" y="-15.4" font-family="sans-serif" font-size="14.00"> &#160;Module</text>
<polygon fill="#80b1d3" stroke="transparent" points="419,-10 419,-30 439,-30 439,-10 419,-10"/>
<text text-anchor="start" x="442.78" y="-15.4" font-family="sans-serif" font-size="14.00"> &#160;Bootstrap</text>
<polygon fill="#fdb462" stroke="transparent" points="516,-10 516,-30 536,-30 536,-10 516,-10"/>
<text text-anchor="start" x="539.67" y="-15.4" font-family="sans-serif" font-size="14.00"> &#160;Providers</text>
<polygon fill="#fb8072" stroke="transparent" points="612,-10 612,-30 632,-30 632,-10 612,-10"/>
<text text-anchor="start" x="635.73" y="-15.4" font-family="sans-serif" font-size="14.00"> &#160;Exports</text>
<g id="clust1" class="cluster">
<title>cluster_WardDietitianModule</title>
<polygon fill="none" stroke="black" stroke-dasharray="1,5" points="8,-70 8,-195 900,-195 900,-70 8,-70"/>
</g>
<g id="clust6" class="cluster">
<title>cluster_WardDietitianModule_imports</title>
<polygon fill="none" stroke="black" points="660,-78 660,-130 892,-130 892,-78 660,-78"/>
</g>
<g id="clust2" class="cluster">
<title>cluster_WardDietitianModule_declarations</title>
<polygon fill="none" stroke="black" points="16,-78 16,-130 652,-130 652,-78 16,-78"/>
</g>
<!-- DietitianAddRestrictionComponent -->
<g id="node1" class="node">
<title>DietitianAddRestrictionComponent</title>
<polygon fill="#ffffb3" stroke="black" points="643.86,-122 428.14,-122 428.14,-86 643.86,-86 643.86,-122"/>
<text text-anchor="middle" x="536" y="-99.8" font-family="Times,serif" font-size="14.00">DietitianAddRestrictionComponent</text>
</g>
<!-- WardDietitianModule -->
<g id="node4" class="node">
<title>WardDietitianModule</title>
<polygon fill="#8dd3c7" stroke="black" points="605.63,-187 602.63,-191 581.63,-191 578.63,-187 466.37,-187 466.37,-151 605.63,-151 605.63,-187"/>
<text text-anchor="middle" x="536" y="-164.8" font-family="Times,serif" font-size="14.00">WardDietitianModule</text>
</g>
<!-- DietitianAddRestrictionComponent&#45;&gt;WardDietitianModule -->
<g id="edge1" class="edge">
<title>DietitianAddRestrictionComponent&#45;&gt;WardDietitianModule</title>
<path fill="none" stroke="black" d="M536,-122.11C536,-122.11 536,-140.99 536,-140.99"/>
<polygon fill="black" stroke="black" points="532.5,-140.99 536,-150.99 539.5,-140.99 532.5,-140.99"/>
</g>
<!-- DietitianMainComponent -->
<g id="node2" class="node">
<title>DietitianMainComponent</title>
<polygon fill="#ffffb3" stroke="black" points="409.87,-122 250.13,-122 250.13,-86 409.87,-86 409.87,-122"/>
<text text-anchor="middle" x="330" y="-99.8" font-family="Times,serif" font-size="14.00">DietitianMainComponent</text>
</g>
<!-- DietitianMainComponent&#45;&gt;WardDietitianModule -->
<g id="edge2" class="edge">
<title>DietitianMainComponent&#45;&gt;WardDietitianModule</title>
<path fill="none" stroke="black" d="M330,-122.02C330,-139.37 330,-163 330,-163 330,-163 456.26,-163 456.26,-163"/>
<polygon fill="black" stroke="black" points="456.26,-166.5 466.26,-163 456.26,-159.5 456.26,-166.5"/>
</g>
<!-- DietitianPatientDetailsComponent -->
<g id="node3" class="node">
<title>DietitianPatientDetailsComponent</title>
<polygon fill="#ffffb3" stroke="black" points="232.36,-122 23.64,-122 23.64,-86 232.36,-86 232.36,-122"/>
<text text-anchor="middle" x="128" y="-99.8" font-family="Times,serif" font-size="14.00">DietitianPatientDetailsComponent</text>
</g>
<!-- DietitianPatientDetailsComponent&#45;&gt;WardDietitianModule -->
<g id="edge3" class="edge">
<title>DietitianPatientDetailsComponent&#45;&gt;WardDietitianModule</title>
<path fill="none" stroke="black" d="M128,-122.28C128,-143.32 128,-175 128,-175 128,-175 456.33,-175 456.33,-175"/>
<polygon fill="black" stroke="black" points="456.33,-178.5 466.33,-175 456.33,-171.5 456.33,-178.5"/>
</g>
<!-- MaterialModule -->
<g id="node5" class="node">
<title>MaterialModule</title>
<polygon fill="#8dd3c7" stroke="black" points="884.47,-122 881.47,-126 860.47,-126 857.47,-122 777.53,-122 777.53,-86 884.47,-86 884.47,-122"/>
<text text-anchor="middle" x="831" y="-99.8" font-family="Times,serif" font-size="14.00">MaterialModule</text>
</g>
<!-- MaterialModule&#45;&gt;WardDietitianModule -->
<g id="edge4" class="edge">
<title>MaterialModule&#45;&gt;WardDietitianModule</title>
<path fill="none" stroke="black" d="M831,-122.28C831,-143.32 831,-175 831,-175 831,-175 615.91,-175 615.91,-175"/>
<polygon fill="black" stroke="black" points="615.91,-171.5 605.91,-175 615.91,-178.5 615.91,-171.5"/>
</g>
<!-- ToolsModule -->
<g id="node6" class="node">
<title>ToolsModule</title>
<polygon fill="#8dd3c7" stroke="black" points="759.94,-122 756.94,-126 735.94,-126 732.94,-122 668.06,-122 668.06,-86 759.94,-86 759.94,-122"/>
<text text-anchor="middle" x="714" y="-99.8" font-family="Times,serif" font-size="14.00">ToolsModule</text>
</g>
<!-- ToolsModule&#45;&gt;WardDietitianModule -->
<g id="edge5" class="edge">
<title>ToolsModule&#45;&gt;WardDietitianModule</title>
<path fill="none" stroke="black" d="M714,-122.02C714,-139.37 714,-163 714,-163 714,-163 615.84,-163 615.84,-163"/>
<polygon fill="black" stroke="black" points="615.84,-159.5 605.84,-163 615.84,-166.5 615.84,-159.5"/>
</g>
</g>
</svg>
